<?xml version="1.0" encoding="utf-8"?>
<!-- Generator: Adobe Illustrator 23.0.3, SVG Export Plug-In . SVG Version: 6.00 Build 0)  -->
<svg version="1.1" id="Lag_1" xmlns="http://www.w3.org/2000/svg" xmlns:xlink="http://www.w3.org/1999/xlink" x="0px" y="0px"
	 viewBox="0 0 100 100" style="enable-background:new 0 0 100 100;" xml:space="preserve">
<style type="text/css">
	.st0{display:none;}
	.st1{display:inline;}
</style>
<g>
	<g>
		<g id="icon-bedtype-king">
			<title>bedtype king</title>
			<path d="M97.08,62.42c0-5.61-2.04-9.87-5.27-12.93V20.23c0-1.02-0.68-1.7-1.7-1.7H7.75c-0.85,0-1.7,0.85-1.7,1.7v31.65
				c0,0,0,0,0,0.17c-1.53,2.89-2.55,6.3-2.55,10.72v17.18c0,1.7,1.53,3.23,3.4,3.23h4.42c1.87,0,3.4-1.53,3.4-3.23v-7.66h71.29v7.66
				c0,1.7,1.53,3.23,3.4,3.23h4.25c1.87,0,3.4-1.53,3.4-3.23V62.93v-0.17C97.08,62.59,97.08,62.42,97.08,62.42z M93.67,61.06H6.9
				c1.02-15.82,18.03-17.18,41.68-17.18c12.08,0,25.01,0,33.86,3.4c0.17,0.17,0.34,0.17,0.51,0.17
				C89.08,50.17,93.16,54.26,93.67,61.06z M15.58,44.39v-2.72c0-10.38,10.89-11.57,15.65-11.57c4.59,0,14.97,1.02,15.65,10.55
				C35.83,40.65,24.09,40.82,15.58,44.39z M50.29,40.65c0-0.17,0-0.17,0-0.17c0-10.38,10.89-11.57,15.65-11.57
				c4.76,0,15.65,1.19,15.65,11.57v3.4C72.41,40.82,60.67,40.65,50.29,40.65L50.29,40.65z M88.4,21.93v24.84
				c-1.02-0.68-2.21-1.19-3.4-1.7v-4.76c0-9.19-7.15-14.8-19.06-14.8c-8.85,0-15.14,3.06-17.69,8.51
				c-2.89-4.42-8.68-6.98-16.84-6.98c-11.91,0-19.06,5.44-19.06,14.8v4.25c-1.02,0.68-1.87,1.36-2.72,2.04v-26.2L88.4,21.93z
				 M11.33,79.95H6.9v-7.66h4.42V79.95z M6.9,69.06V64.3h86.77v4.76H6.9z M89.25,79.95v-7.66h4.42v7.66H89.25z"/>
		</g>
	</g>
	<g class="st0">
		<g id="icon-bedtype-queen" class="st1">
			<title>bedtype queen</title>
			<path d="M88.57,63.96L88.57,63.96c0-0.17,0-0.34,0-0.51C88.4,54.94,83.98,50,77.34,47.11v-4.42c0-8.68-6.64-13.95-17.86-13.95
				c-8.34,0-12.76,2.89-15.14,8c-2.72-4.25-6.64-6.81-14.46-6.81c-11.4,0.17-18.03,5.44-18.03,14.12v4.08
				c-5.1,3.06-8.34,7.83-8.34,15.82v16.33c0,1.7,1.36,3.06,3.23,3.06h4.25c1.7,0,3.23-1.36,3.23-3.06v-7.32h63.97v7.15
				c0,1.7,1.36,3.06,3.23,3.06h4.25c1.7,0,3.23-1.36,3.23-3.06V63.96L88.57,63.96z M6.73,69.91v-4.42h78.77v4.42H6.73z M46.03,42.86
				c0-9.87,8.68-10.89,13.1-10.89s14.8,1.02,14.8,10.89v3.23c-8.68-2.72-18.37-2.89-28.07-2.89c0,0,0,0,0-0.17
				C46.03,42.86,46.03,42.86,46.03,42.86L46.03,42.86z M14.9,44.05c0-9.87,10.38-10.89,14.8-10.89c4.25,0,12.42,1.02,13.1,9.87
				c-10.55,0-19.91,0.17-27.9,3.4L14.9,44.05z M44.33,46.09c11.4,0,21.95,0,30.45,3.23c0.17,0.17,0.34,0.17,0.51,0.17
				c5.61,2.38,9.53,6.3,10.04,12.76H6.73C7.75,47.28,22.05,46.09,44.33,46.09L44.33,46.09z M6.73,80.12v-7.15h4.25v7.15H6.73z
				 M81.25,80.12v-7.15h4.25v7.15H81.25z"/>
		</g>
	</g>
	<g class="st0">
		<g id="icon-bedtype-single" class="st1">
			<title>bedtype single</title>
			<path d="M63.05,63.44C62.88,54.94,58.63,50,52.33,47.11l-3.06-1.19c-0.17,0-0.34,0-0.34-0.17h0.17c0-9.87-5.61-14.8-16.5-14.8
				c-5.1,0-9.19,1.36-11.74,4.08c-2.38,2.38-3.57,5.95-3.57,10.21c-1.02,0.34-2.04,0.68-2.89,1.02l-3.06,1.53
				C6.56,51.02,3.5,55.96,3.5,63.79v16.33c0,1.7,1.36,3.06,3.06,3.06h3.91c1.7,0,3.06-1.36,3.06-3.06V72.8h39.47v7.32
				c0,1.7,1.36,3.06,3.06,3.06h3.91c1.7,0,3.06-1.36,3.06-3.06V63.96v-0.17C63.05,63.61,63.05,63.61,63.05,63.44z M23.24,37.41
				c2.04-2.04,5.1-3.06,9.53-3.06c11.23,0,13.1,5.44,13.27,10.72c-2.89-0.68-6.13-1.19-9.36-1.53l-6.64-0.17
				c-3.23,0.17-6.47,0.68-9.36,1.19C20.68,41.5,21.53,38.94,23.24,37.41z M30.04,46.26l6.64,0.17c4.93,0.51,9.53,1.19,13.44,2.72
				c0.17,0.17,0.34,0.17,0.51,0.17c5.44,2.38,9.02,6.3,9.53,12.76H6.56C7.24,50.68,16.26,47.28,30.04,46.26z M10.48,80.12H6.56V72.8
				h3.91V80.12z M30.04,69.74H6.56v-4.42h53.42v4.42H30.04z M56.07,80.12V72.8h3.91v7.32H56.07z"/>
		</g>
	</g>
	<g class="st0">
		<g id="icon-bedtype-twin" class="st1">
			<title>bedtype twin</title>
			<path d="M63.05,63.44C62.88,54.94,58.63,50,52.33,47.11l-3.06-1.19c-0.17,0-0.34,0-0.34-0.17h0.17c0-9.87-5.61-14.8-16.5-14.8
				c-5.1,0-9.19,1.36-11.74,4.08c-2.38,2.38-3.57,5.95-3.57,10.21c-1.02,0.34-2.04,0.68-2.89,1.02l-3.06,1.53
				C6.56,51.02,3.5,55.96,3.5,63.79v16.33c0,1.7,1.36,3.06,3.06,3.06h3.91c1.7,0,3.06-1.36,3.06-3.06V72.8h39.47v7.32
				c0,1.7,1.36,3.06,3.06,3.06h3.91c1.7,0,3.06-1.36,3.06-3.06V63.96v-0.17C63.05,63.61,63.05,63.61,63.05,63.44z M23.24,37.41
				c2.04-2.04,5.1-3.06,9.53-3.06c11.23,0,13.1,5.44,13.27,10.72c-2.89-0.68-6.13-1.19-9.36-1.53l-6.64-0.17
				c-3.23,0.17-6.47,0.68-9.36,1.19C20.68,41.5,21.53,38.94,23.24,37.41z M30.04,46.26l6.64,0.17c4.93,0.51,9.53,1.19,13.44,2.72
				c0.17,0.17,0.34,0.17,0.51,0.17c5.44,2.38,9.02,6.3,9.53,12.76H6.56C7.24,50.68,16.26,47.28,30.04,46.26z M10.48,80.12H6.56V72.8
				h3.91V80.12z M30.04,69.74H6.56v-4.42h53.42v4.42H30.04z M56.07,80.12V72.8h3.91v7.32H56.07z M126,63.44
				c-0.17-8.51-4.42-13.44-10.72-16.33l-3.06-1.19c-0.17,0-0.34,0-0.34-0.17h0.17c0-9.87-5.61-14.8-16.5-14.8
				c-5.1,0-9.19,1.36-11.74,4.08c-2.38,2.38-3.57,5.95-3.57,10.21c-1.02,0.34-2.04,0.68-2.89,1.02l-3.06,1.53
				c-4.76,3.23-7.83,8.17-7.83,15.99v16.33c0,1.7,1.36,3.06,3.06,3.06h3.91c1.7,0,3.06-1.36,3.06-3.06V72.8h39.47v7.32
				c0,1.7,1.36,3.06,3.06,3.06h3.91c1.7,0,3.06-1.36,3.06-3.06V63.96v-0.17C126,63.61,126,63.61,126,63.44z M86.19,37.41
				c2.04-2.04,5.1-3.06,9.53-3.06c11.23,0,13.1,5.44,13.27,10.72c-2.89-0.68-6.13-1.19-9.36-1.53l-6.64-0.17
				c-3.23,0.17-6.47,0.68-9.36,1.19C83.64,41.5,84.49,38.94,86.19,37.41z M92.99,46.26l6.64,0.17c4.93,0.51,9.53,1.19,13.44,2.72
				c0.17,0.17,0.34,0.17,0.51,0.17c5.44,2.38,9.02,6.3,9.53,12.76H69.51C70.19,50.68,79.21,47.28,92.99,46.26z M73.43,80.12h-3.91
				V72.8h3.91V80.12z M92.99,69.74H69.51v-4.42h53.42v4.42H92.99z M119.02,80.12V72.8h3.91v7.32H119.02z"/>
		</g>
	</g>
	<g class="st0">
		<g id="icon-bedtype-custom-occupancy" class="st1">
			<title>bedtype custom occupancy</title>
			<path d="M89.42,63.1C89.25,54.43,85,49.49,78.53,46.6l-3.06-1.19c-0.17,0-0.34,0-0.34-0.17h0.17c0-10.04-5.61-14.97-16.67-14.97
				c-5.1,0-9.36,1.36-11.91,4.08c-2.38,2.38-3.57,5.95-3.57,10.38c-1.02,0.34-2.04,0.68-2.89,1.02l-3.06,1.53
				c-4.76,3.23-8,8.34-8,16.16v16.5c0,1.7,1.36,3.06,3.06,3.06h3.91c1.7,0,3.06-1.36,3.06-3.06v-7.49h4.25H55.9h23.31v7.49
				c0,1.7,1.36,3.06,3.06,3.06h3.91c1.7,0,3.06-1.36,3.06-3.06V63.61v-0.17C89.42,63.27,89.42,63.27,89.42,63.1z M48.93,36.73
				c2.04-2.04,5.1-3.06,9.7-3.06c11.4,0,13.27,5.61,13.44,10.89c-2.89-0.68-6.3-1.19-9.53-1.53l-6.81-0.17
				c-3.23,0.17-6.64,0.68-9.53,1.19C46.38,40.82,47.23,38.26,48.93,36.73z M55.9,45.92l6.81,0.17c4.93,0.51,9.7,1.19,13.61,2.72
				c0.17,0.17,0.34,0.17,0.51,0.17c5.61,2.38,9.19,6.47,9.7,12.93H55.9H43.48h-11.4C32.76,50.17,41.95,46.77,55.9,45.92z M36,80.12
				h-3.91v-7.49H36V80.12z M55.9,69.74H43.48h-11.4v-4.42h11.4H55.9h30.45v4.42H55.9z M82.27,80.12v-7.49h3.91v7.49H82.27z"/>
			<path d="M30.72,69.74H6.56v-4.42h24.33l0.17-3.23H6.39c0.51-6.64,4.08-10.55,9.7-12.93c0.17,0,0.34,0,0.51-0.17
				c3.91-1.53,8.68-2.21,13.61-2.72l6.81-0.17c2.72,0.17,5.44,0.51,7.66,0.85l0.51-3.06c-2.55-0.51-5.44-0.85-8.17-1.02l-6.81,0.17
				c-3.23,0.34-6.64,0.85-9.53,1.53c0.17-5.27,2.04-10.89,13.44-10.89c4.42,0,7.66,1.02,9.7,3.06c0.85,0.68,1.53,1.7,1.87,2.89
				l0.17-0.85l1.87-2.72c-0.51-0.68-1.02-1.36-1.53-1.87c-2.55-2.72-6.81-4.08-11.91-4.08c-11.06,0-16.67,4.93-16.67,14.97h0.17
				c0,0.17-0.17,0.17-0.34,0.17l-3.06,1.19c-6.3,2.89-10.72,8-10.89,16.5c0,0.17,0,0.17,0,0.34v0.17v16.33
				c0,1.7,1.36,3.06,3.06,3.06h3.91c1.7,0,3.06-1.36,3.06-3.06v-7.49h17.01V71.1L30.72,69.74z M10.65,80.12H6.56v-7.49h3.91v7.49
				H10.65z"/>
			<path d="M104.9,80.12c0,1.7,1.36,3.06,3.06,3.06h3.91c1.7,0,3.06-1.36,3.06-3.06V63.79v-0.17c0-0.17,0-0.17,0-0.34
				c-0.17-8.68-4.42-13.61-10.89-16.5l-3.06-1.19c-0.17,0-0.34,0-0.34-0.17h0.17c0-10.04-5.61-14.97-16.67-14.97
				c-5.1,0-9.36,1.36-11.91,4.08c-0.51,0.51-1.02,1.19-1.53,1.87l1.87,2.72l0.17,0.85c0.51-1.19,1.02-2.21,1.87-2.89
				c2.04-2.04,5.1-3.06,9.7-3.06c11.4,0,13.27,5.61,13.44,10.89c-2.89-0.68-6.3-1.19-9.53-1.53l-6.81-0.17
				c-2.72,0.17-5.61,0.51-8.17,1.02l0.51,3.06c2.38-0.34,4.93-0.68,7.66-0.85l6.81,0.17c4.93,0.51,9.7,1.19,13.61,2.72
				c0.17,0.17,0.34,0.17,0.51,0.17c5.61,2.38,9.19,6.47,9.7,12.93h-24.5l0.17,3.23h24.33v4.42H87.72v1.87v1.19h17.01v6.98H104.9z
				 M107.97,72.63h3.91v7.49h-3.91V72.63z"/>
		</g>
	</g>
	<g class="st0">
		<g id="icon-bedtype-extra-pull" class="st1">
			<title>bedtype extra pull</title>
			<path d="M83.47,30.44h-4.93h-3.4v3.4v16.67c-1.19-0.34-2.55-0.51-4.08-0.68c-1.36-5.78-6.64-10.21-12.93-10.21H52.5
				c-6.64,0-12.08,4.76-13.1,11.06c-2.04,0.51-3.91,1.36-5.61,2.55c0.17-0.85,0.34-1.87,0.34-2.89c0-8.51-6.81-15.31-15.31-15.31
				S3.5,41.84,3.5,50.34s6.81,15.31,15.31,15.31c3.23,0,6.3-1.02,8.85-2.89c-0.17,1.02-0.34,2.04-0.34,3.4l0,0l0,0v3.4l0,0v3.4v3.4
				h3.4h1.87c0,0.34-0.17,0.51-0.17,0.85c0,3.23,2.72,5.95,5.95,5.95c3.23,0,5.95-2.72,5.95-5.95c0-0.34,0-0.51-0.17-0.85h30.8h0.17
				v3.06v3.4h3.4h4.93h3.4v-3.4v-45.6v-3.4H83.47z M52.67,42.86h5.61c4.25,0,7.83,2.72,9.36,6.47c-2.38-0.17-5.1-0.17-8-0.17h-6.47
				c-2.72,0-6.3,0-9.87,0.51C44.5,45.75,48.25,42.86,52.67,42.86z M20.51,51.88v6.81c0,1.02-0.68,1.7-1.7,1.7s-1.7-0.68-1.7-1.7
				v-6.81h-6.81c-1.02,0-1.7-0.68-1.7-1.7c0-1.02,0.68-1.7,1.7-1.7h6.81v-6.81c0-1.02,0.68-1.7,1.7-1.7s1.7,0.68,1.7,1.7v6.81h6.81
				c1.02,0,1.7,0.68,1.7,1.7c0,1.02-0.68,1.7-1.7,1.7H20.51z M38.38,79.78c-1.36,0-2.55-1.19-2.55-2.55c0-0.34,0-0.51,0.17-0.85
				h4.76c0.17,0.34,0.17,0.51,0.17,0.85C40.93,78.59,39.91,79.78,38.38,79.78z M74.96,72.97H30.72v-3.4h44.24V72.97z M75.13,66.17
				L75.13,66.17H30.72c0-10.89,8-13.61,22.29-13.61c0.68,0,5.61,0,6.47,0c7.32,0,12.25,0.34,15.65,1.36L75.13,66.17z M83.47,79.44
				h-4.93v-45.6h4.93V79.44z"/>
		</g>
	</g>
	<g class="st0">
		<g id="icon-bedtype-extra-wall" class="st1">
			<title>bedtype extra wall</title>
			<path d="M90.1,25.84h-6.64h-3.4v3.4v19.91c-0.68,0-1.36,0-2.04,0.17c-2.38-1.87-3.57-3.06-6.81-3.91
				c-1.19-6.3-6.47-11.06-13.1-11.06H52.5c-6.64,0-12.08,4.76-13.1,11.06c-1.87,0.51-3.91,1.36-5.44,2.38
				c-1.19-7.32-7.49-12.93-15.14-12.93c-8.51,0-15.31,6.81-15.31,15.31s6.81,15.31,15.31,15.31c3.23,0,6.13-1.02,8.51-2.55v1.53v3.4
				v3.4h3.4h49.34v8.51v3.4h3.4h6.64h3.4v-3.4V29.25v-3.4H90.1z M52.5,37.75h5.61c4.42,0,8.17,2.89,9.36,6.81
				c-2.72-0.34-5.44-0.51-8.17-0.51h-6.47c-2.72,0-6.3,0-9.87,0.51C44.5,40.65,48.25,37.75,52.5,37.75z M53.01,47.45
				c0.68,0,5.61,0,6.47,0c7.15,0,10.89,1.02,14.63,3.23c-3.57,2.04-5.95,5.95-5.95,10.38H30.72c0-0.51,0-1.02,0-1.36
				c1.7-2.21,2.89-4.76,3.23-7.66C37.53,48.64,44.16,47.45,53.01,47.45z M20.51,58.68c0,1.02-0.68,1.7-1.7,1.7s-1.7-0.68-1.7-1.7
				v-6.81h-6.81c-1.02,0-1.7-0.68-1.7-1.7c0-1.02,0.68-1.7,1.7-1.7h6.81v-6.81c0-1.02,0.68-1.7,1.7-1.7s1.7,0.68,1.7,1.7v6.81h6.81
				c1.02,0,1.7,0.68,1.7,1.7c0,1.02-0.68,1.7-1.7,1.7h-6.81V58.68z M80.06,67.87H30.72v-3.4h49.34V67.87z M80.06,56.13
				c-2.55,0.34-4.59,2.38-4.93,4.93h-3.57c0-4.76,3.74-8.51,8.51-8.51V56.13z M90.1,79.78h-6.64v-8.51v-3.4v-3.4v-3.4V29.25h6.64
				V79.78z"/>
		</g>
	</g>
</g>
</svg>
