<?xml version="1.0" encoding="utf-8"?>
<!-- Generator: Adobe Illustrator 23.0.3, SVG Export Plug-In . SVG Version: 6.00 Build 0)  -->
<svg version="1.1" id="Lag_1" xmlns="http://www.w3.org/2000/svg" xmlns:xlink="http://www.w3.org/1999/xlink" x="0px" y="0px"
	 viewBox="0 0 100 100" style="enable-background:new 0 0 100 100;" xml:space="preserve">
<g>
	<path d="M19.22,30.27c4.06,0,7.37-3.3,7.37-7.36c0-4.06-3.3-7.36-7.37-7.36c-4.06,0-7.36,3.3-7.36,7.36
		C11.85,26.97,15.16,30.27,19.22,30.27z"/>
	<path d="M35.39,53.29c0.04-0.13,0.05-0.28,0.02-0.42l-3.38-17.91c-0.27-1.68-1.7-2.89-3.39-2.89H9.78c-1.69,0-3.12,1.22-3.38,2.87
		L3.02,52.87C2.99,53.02,3,53.16,3.04,53.29C3.01,53.46,3,53.61,3,53.77c0,1.9,1.54,3.44,3.44,3.44c1.66,0,3.08-1.19,3.38-2.84
		l2.13-13.32l-0.03,42.51c0,1.9,1.54,3.44,3.44,3.44c1.9,0,3.44-1.54,3.44-3.44V62.52h0.82v21.04c0,1.9,1.54,3.44,3.44,3.44
		s3.44-1.54,3.44-3.44l-0.03-42.51l2.13,13.34c0.3,1.63,1.72,2.82,3.38,2.82c1.9,0,3.44-1.54,3.44-3.44
		C35.43,53.61,35.42,53.45,35.39,53.29z"/>
</g>
<g>
	<path d="M53.74,30.27c4.06,0,7.37-3.3,7.37-7.36c0-4.06-3.3-7.36-7.37-7.36c-4.06,0-7.36,3.3-7.36,7.36
		C46.38,26.97,49.68,30.27,53.74,30.27z"/>
	<path d="M69.92,53.29c0.04-0.13,0.05-0.28,0.02-0.42l-3.38-17.91c-0.27-1.68-1.7-2.89-3.39-2.89H44.3c-1.69,0-3.12,1.22-3.38,2.87
		l-3.38,17.94c-0.03,0.15-0.02,0.29,0.02,0.42c-0.03,0.16-0.04,0.32-0.04,0.48c0,1.9,1.54,3.44,3.44,3.44
		c1.66,0,3.08-1.19,3.38-2.84l2.13-13.32l-0.03,42.51c0,1.9,1.54,3.44,3.44,3.44c1.9,0,3.44-1.54,3.44-3.44V62.52h0.82v21.04
		c0,1.9,1.54,3.44,3.44,3.44s3.44-1.54,3.44-3.44L61,41.05l2.13,13.34c0.3,1.63,1.72,2.82,3.38,2.82c1.9,0,3.44-1.54,3.44-3.44
		C69.96,53.61,69.94,53.45,69.92,53.29z"/>
</g>
<g>
	<path d="M84.46,43.12c3.14,0,5.7-2.56,5.7-5.7c0-3.14-2.56-5.7-5.7-5.7c-3.14,0-5.7,2.55-5.7,5.7
		C78.76,40.57,81.32,43.12,84.46,43.12z"/>
	<path d="M96.97,60.93c0.03-0.1,0.04-0.21,0.02-0.33l-2.61-13.86c-0.21-1.3-1.31-2.24-2.62-2.24h-14.6c-1.31,0-2.41,0.94-2.62,2.22
		L71.93,60.6c-0.02,0.11-0.01,0.22,0.02,0.33c-0.02,0.13-0.03,0.25-0.03,0.37c0,1.47,1.19,2.66,2.66,2.66
		c1.28,0,2.38-0.92,2.62-2.19l1.65-10.3l-0.02,32.88c0,1.47,1.19,2.66,2.66,2.66c1.47,0,2.66-1.19,2.66-2.66V68.07h0.63v16.27
		c0,1.47,1.19,2.66,2.66,2.66c1.47,0,2.66-1.19,2.66-2.66l-0.02-32.88l1.65,10.32c0.23,1.26,1.33,2.18,2.61,2.18
		c1.47,0,2.66-1.19,2.66-2.66C97,61.18,96.99,61.05,96.97,60.93z"/>
</g>
</svg>
